<svg xmlns="http://www.w3.org/2000/svg" xmlns:xlink="http://www.w3.org/1999/xlink" width="250" zoomAndPan="magnify" viewBox="0 0 187.5 60" height="80" preserveAspectRatio="xMidYMid meet" version="1.0"><defs><g/><clipPath id="ca41ec92c3"><path d="M 0 6.0625 L 28 6.0625 L 28 47.953125 L 0 47.953125 Z M 0 6.0625 " clip-rule="nonzero"/></clipPath><clipPath id="8bc159c515"><path d="M 0 6.0625 L 28 6.0625 L 28 38 L 0 38 Z M 0 6.0625 " clip-rule="nonzero"/></clipPath><clipPath id="0a0725f52c"><path d="M 37 6.0625 L 45.628906 6.0625 L 45.628906 15 L 37 15 Z M 37 6.0625 " clip-rule="nonzero"/></clipPath><clipPath id="f145ecd355"><path d="M 17 6.0625 L 45.628906 6.0625 L 45.628906 47.953125 L 17 47.953125 Z M 17 6.0625 " clip-rule="nonzero"/></clipPath><clipPath id="c78dec77bd"><path d="M 17 6.0625 L 45.628906 6.0625 L 45.628906 38 L 17 38 Z M 17 6.0625 " clip-rule="nonzero"/></clipPath></defs><g clip-path="url(#ca41ec92c3)"><path fill="#ffffff" d="M 10.792969 8.175781 L 25.375 22.761719 C 25.667969 23.054688 25.929688 23.375 26.160156 23.71875 C 26.390625 24.0625 26.585938 24.429688 26.746094 24.8125 C 26.90625 25.195312 27.023438 25.589844 27.105469 26 C 27.1875 26.40625 27.226562 26.816406 27.226562 27.230469 C 27.226562 27.648438 27.1875 28.058594 27.105469 28.464844 C 27.023438 28.871094 26.90625 29.265625 26.746094 29.652344 C 26.585938 30.035156 26.390625 30.398438 26.160156 30.742188 C 25.929688 31.089844 25.667969 31.410156 25.375 31.703125 L 10.792969 46.285156 C 6.808594 50.269531 -0.00390625 47.445312 0 41.808594 L 0 12.644531 C -0.00390625 7.015625 6.808594 4.195312 10.792969 8.175781 Z M 10.792969 8.175781 " fill-opacity="1" fill-rule="nonzero"/></g><g clip-path="url(#8bc159c515)"><path fill="#ffffff" d="M 10.792969 8.175781 C 6.832031 4.21875 0.0976562 6.984375 0.00390625 12.550781 C 0.00390625 12.550781 22.953125 34.261719 19.300781 37.800781 L 25.386719 31.714844 C 25.683594 31.421875 25.945312 31.101562 26.175781 30.757812 C 26.40625 30.410156 26.601562 30.046875 26.757812 29.664062 C 26.917969 29.28125 27.039062 28.886719 27.117188 28.476562 C 27.199219 28.070312 27.238281 27.660156 27.238281 27.246094 C 27.238281 26.828125 27.199219 26.417969 27.117188 26.011719 C 27.039062 25.605469 26.917969 25.207031 26.757812 24.824219 C 26.601562 24.441406 26.40625 24.078125 26.175781 23.730469 C 25.945312 23.386719 25.683594 23.066406 25.386719 22.773438 Z M 10.792969 8.175781 " fill-opacity="1" fill-rule="nonzero"/></g><g clip-path="url(#0a0725f52c)"><path fill="#ffffff" d="M 45.371094 10.246094 C 45.371094 10.515625 45.34375 10.785156 45.292969 11.050781 C 45.238281 11.316406 45.160156 11.574219 45.058594 11.824219 C 44.953125 12.078125 44.824219 12.316406 44.675781 12.539062 C 44.523438 12.765625 44.351562 12.976562 44.160156 13.167969 C 43.96875 13.359375 43.761719 13.53125 43.535156 13.679688 C 43.308594 13.832031 43.070312 13.957031 42.820312 14.0625 C 42.570312 14.167969 42.3125 14.246094 42.046875 14.296875 C 41.777344 14.351562 41.511719 14.375 41.238281 14.375 C 40.96875 14.375 40.699219 14.351562 40.433594 14.296875 C 40.167969 14.246094 39.910156 14.167969 39.65625 14.0625 C 39.40625 13.957031 39.167969 13.832031 38.945312 13.679688 C 38.71875 13.53125 38.507812 13.359375 38.316406 13.167969 C 38.125 12.976562 37.953125 12.765625 37.804688 12.539062 C 37.652344 12.316406 37.527344 12.078125 37.421875 11.824219 C 37.316406 11.574219 37.238281 11.316406 37.1875 11.050781 C 37.132812 10.785156 37.105469 10.515625 37.105469 10.246094 C 37.105469 9.972656 37.132812 9.703125 37.1875 9.4375 C 37.238281 9.171875 37.316406 8.914062 37.421875 8.664062 C 37.527344 8.414062 37.652344 8.175781 37.804688 7.949219 C 37.953125 7.722656 38.125 7.515625 38.316406 7.324219 C 38.507812 7.132812 38.71875 6.960938 38.945312 6.808594 C 39.167969 6.660156 39.40625 6.53125 39.65625 6.425781 C 39.910156 6.324219 40.167969 6.246094 40.433594 6.191406 C 40.699219 6.140625 40.96875 6.113281 41.238281 6.113281 C 41.511719 6.113281 41.777344 6.140625 42.046875 6.191406 C 42.3125 6.246094 42.570312 6.324219 42.820312 6.425781 C 43.070312 6.53125 43.308594 6.660156 43.535156 6.808594 C 43.761719 6.960938 43.96875 7.132812 44.160156 7.324219 C 44.351562 7.515625 44.523438 7.722656 44.675781 7.949219 C 44.824219 8.175781 44.953125 8.414062 45.058594 8.664062 C 45.160156 8.914062 45.238281 9.171875 45.292969 9.4375 C 45.34375 9.703125 45.371094 9.972656 45.371094 10.246094 Z M 45.371094 10.246094 " fill-opacity="1" fill-rule="nonzero"/><path fill="#ffffff" d="M 45.371094 10.246094 C 45.371094 10.515625 45.34375 10.785156 45.292969 11.050781 C 45.238281 11.316406 45.160156 11.574219 45.058594 11.824219 C 44.953125 12.078125 44.824219 12.316406 44.675781 12.539062 C 44.523438 12.765625 44.351562 12.976562 44.160156 13.167969 C 43.96875 13.359375 43.761719 13.53125 43.535156 13.679688 C 43.308594 13.832031 43.070312 13.957031 42.820312 14.0625 C 42.570312 14.167969 42.3125 14.246094 42.046875 14.296875 C 41.777344 14.351562 41.511719 14.375 41.238281 14.375 C 40.96875 14.375 40.699219 14.351562 40.433594 14.296875 C 40.167969 14.246094 39.910156 14.167969 39.65625 14.0625 C 39.40625 13.957031 39.167969 13.832031 38.945312 13.679688 C 38.71875 13.53125 38.507812 13.359375 38.316406 13.167969 C 38.125 12.976562 37.953125 12.765625 37.804688 12.539062 C 37.652344 12.316406 37.527344 12.078125 37.421875 11.824219 C 37.316406 11.574219 37.238281 11.316406 37.1875 11.050781 C 37.132812 10.785156 37.105469 10.515625 37.105469 10.246094 C 37.105469 9.972656 37.132812 9.703125 37.1875 9.4375 C 37.238281 9.171875 37.316406 8.914062 37.421875 8.664062 C 37.527344 8.414062 37.652344 8.175781 37.804688 7.949219 C 37.953125 7.722656 38.125 7.515625 38.316406 7.324219 C 38.507812 7.132812 38.71875 6.960938 38.945312 6.808594 C 39.167969 6.660156 39.40625 6.53125 39.65625 6.425781 C 39.910156 6.324219 40.167969 6.246094 40.433594 6.191406 C 40.699219 6.140625 40.96875 6.113281 41.238281 6.113281 C 41.511719 6.113281 41.777344 6.140625 42.046875 6.191406 C 42.3125 6.246094 42.570312 6.324219 42.820312 6.425781 C 43.070312 6.53125 43.308594 6.660156 43.535156 6.808594 C 43.761719 6.960938 43.96875 7.132812 44.160156 7.324219 C 44.351562 7.515625 44.523438 7.722656 44.675781 7.949219 C 44.824219 8.175781 44.953125 8.414062 45.058594 8.664062 C 45.160156 8.914062 45.238281 9.171875 45.292969 9.4375 C 45.34375 9.703125 45.371094 9.972656 45.371094 10.246094 Z M 45.371094 10.246094 " fill-opacity="1" fill-rule="nonzero"/></g><g clip-path="url(#f145ecd355)"><path fill="#ffffff" d="M 43.515625 22.796875 L 28.933594 8.210938 C 25.019531 4.292969 14.582031 8.839844 18.15625 12.410156 L 28.640625 22.898438 C 28.9375 23.195312 29.199219 23.511719 29.429688 23.859375 C 29.660156 24.203125 29.855469 24.566406 30.011719 24.949219 C 30.171875 25.332031 30.292969 25.730469 30.375 26.136719 C 30.453125 26.542969 30.496094 26.953125 30.496094 27.371094 C 30.496094 27.785156 30.453125 28.195312 30.375 28.601562 C 30.292969 29.007812 30.171875 29.40625 30.011719 29.789062 C 29.855469 30.171875 29.660156 30.535156 29.429688 30.878906 C 29.199219 31.226562 28.9375 31.546875 28.640625 31.839844 L 18.160156 42.324219 C 14.964844 45.515625 25.058594 50.222656 28.933594 46.347656 L 43.515625 31.765625 C 43.8125 31.46875 44.078125 31.148438 44.308594 30.804688 C 44.542969 30.457031 44.738281 30.09375 44.898438 29.707031 C 45.058594 29.324219 45.179688 28.925781 45.261719 28.519531 C 45.339844 28.109375 45.382812 27.695312 45.382812 27.28125 C 45.382812 26.863281 45.339844 26.449219 45.261719 26.042969 C 45.179688 25.632812 45.058594 25.238281 44.898438 24.851562 C 44.738281 24.46875 44.542969 24.101562 44.308594 23.757812 C 44.078125 23.410156 43.8125 23.089844 43.515625 22.796875 Z M 43.515625 22.796875 " fill-opacity="1" fill-rule="nonzero"/></g><g clip-path="url(#c78dec77bd)"><path fill="#ffffff" d="M 43.515625 22.796875 L 28.933594 8.210938 C 25.019531 4.292969 14.582031 8.839844 18.15625 12.410156 L 28.640625 22.898438 C 29.683594 23.941406 30.289062 25.195312 30.449219 26.660156 C 34.0625 30.902344 37.066406 35.019531 37.695312 37.585938 L 43.527344 31.753906 C 43.820312 31.460938 44.085938 31.140625 44.316406 30.792969 C 44.546875 30.449219 44.742188 30.082031 44.902344 29.699219 C 45.058594 29.3125 45.179688 28.917969 45.261719 28.507812 C 45.34375 28.101562 45.382812 27.6875 45.382812 27.273438 C 45.382812 26.855469 45.339844 26.445312 45.257812 26.035156 C 45.175781 25.628906 45.054688 25.234375 44.894531 24.847656 C 44.734375 24.464844 44.539062 24.101562 44.308594 23.753906 C 44.074219 23.410156 43.8125 23.089844 43.515625 22.796875 Z M 43.515625 22.796875 " fill-opacity="1" fill-rule="nonzero"/></g><g fill="#ffffff" fill-opacity="1"><g transform="translate(54.136558, 34.822337)"><g><path d="M 5.167969 0 L 5.167969 -6.714844 L 12.585938 -6.714844 L 12.585938 -9.351562 L 5.167969 -9.351562 L 5.167969 -14.292969 L 13.753906 -14.292969 L 13.753906 -17.097656 L 2.035156 -17.097656 L 2.035156 0 Z M 5.167969 0 "/></g></g></g><g fill="#ffffff" fill-opacity="1"><g transform="translate(68.613091, 34.822337)"><g><path d="M 5.167969 0 L 5.167969 -6.058594 L 8.097656 -6.058594 C 8.324219 -6.058594 8.535156 -6.058594 8.761719 -6.070312 L 12.144531 0 L 15.738281 0 L 11.867188 -6.550781 C 13.96875 -7.277344 15.351562 -9.113281 15.351562 -11.527344 C 15.351562 -14.859375 12.875 -17.097656 9.417969 -17.097656 L 2.035156 -17.097656 L 2.035156 0 Z M 5.167969 -14.304688 L 9.289062 -14.304688 C 10.949219 -14.304688 12.21875 -13.085938 12.21875 -11.527344 C 12.21875 -9.855469 10.960938 -8.710938 9.304688 -8.699219 L 5.167969 -8.699219 Z M 5.167969 -14.304688 "/></g></g></g><g fill="#ffffff" fill-opacity="1"><g transform="translate(84.886623, 34.822337)"><g/></g></g><g fill="#ffffff" fill-opacity="1"><g transform="translate(91.157273, 34.822337)"><g><path d="M 7.808594 0.390625 C 12.03125 0.390625 14.769531 -1.472656 14.769531 -4.789062 C 14.769531 -8.210938 11.855469 -9.453125 8.710938 -10.03125 C 5.847656 -10.496094 4.425781 -11.152344 4.425781 -12.585938 C 4.425781 -13.664062 5.066406 -14.757812 7.65625 -14.757812 C 9.980469 -14.757812 11 -13.691406 11 -12.371094 L 14.128906 -12.371094 C 14.128906 -15.4375 11.957031 -17.5 7.695312 -17.5 C 3.257812 -17.5 1.292969 -15.375 1.292969 -12.597656 C 1.292969 -9.050781 4.800781 -8.019531 7.667969 -7.429688 C 10.042969 -6.976562 11.601562 -6.386719 11.601562 -4.800781 C 11.601562 -3.105469 10.359375 -2.25 7.792969 -2.25 C 5.378906 -2.25 3.984375 -3.53125 3.984375 -5.128906 L 0.855469 -5.128906 C 0.855469 -2.453125 2.867188 0.390625 7.808594 0.390625 Z M 7.808594 0.390625 "/></g></g></g><g fill="#ffffff" fill-opacity="1"><g transform="translate(106.714518, 34.822337)"><g><path d="M 7.65625 0.390625 C 11.640625 0.390625 14.496094 -2.652344 14.496094 -6.460938 C 14.496094 -10.246094 11.640625 -13.3125 7.667969 -13.3125 C 3.707031 -13.3125 0.867188 -10.234375 0.867188 -6.460938 C 0.867188 -2.664062 3.722656 0.390625 7.65625 0.390625 Z M 7.679688 -2.4375 C 5.507812 -2.4375 3.882812 -4.125 3.882812 -6.460938 C 3.882812 -8.789062 5.507812 -10.496094 7.679688 -10.496094 C 9.855469 -10.496094 11.476562 -8.789062 11.476562 -6.460938 C 11.476562 -4.125 9.855469 -2.4375 7.679688 -2.4375 Z M 7.679688 -2.4375 "/></g></g></g><g fill="#ffffff" fill-opacity="1"><g transform="translate(122.0707, 34.822337)"><g><path d="M 7.542969 0.390625 C 10.863281 0.390625 13.300781 -1.734375 13.96875 -4.726562 L 10.875 -4.726562 C 10.308594 -3.117188 9.027344 -2.425781 7.554688 -2.425781 C 5.695312 -2.425781 3.882812 -3.910156 3.882812 -6.460938 C 3.882812 -9 5.683594 -10.484375 7.554688 -10.484375 C 9.027344 -10.484375 10.296875 -9.792969 10.875 -8.359375 L 13.980469 -8.359375 C 13.25 -11.199219 10.875 -13.3125 7.542969 -13.3125 C 3.683594 -13.3125 0.867188 -10.21875 0.867188 -6.460938 C 0.867188 -2.691406 3.683594 0.390625 7.542969 0.390625 Z M 7.542969 0.390625 "/></g></g></g><g fill="#ffffff" fill-opacity="1"><g transform="translate(136.710596, 34.822337)"><g><path d="M 3.28125 -14.933594 C 4.511719 -14.933594 5.203125 -15.703125 5.203125 -16.683594 C 5.203125 -17.625 4.511719 -18.417969 3.292969 -18.417969 C 2.097656 -18.417969 1.40625 -17.625 1.40625 -16.683594 C 1.40625 -15.714844 2.113281 -14.933594 3.28125 -14.933594 Z M 4.828125 0 L 4.828125 -12.921875 L 1.785156 -12.921875 L 1.785156 0 Z M 4.828125 0 "/></g></g></g><g fill="#ffffff" fill-opacity="1"><g transform="translate(143.307974, 34.822337)"><g><path d="M 14.078125 -6.6875 C 14.078125 -10.246094 11.464844 -13.3125 7.566406 -13.3125 C 3.683594 -13.3125 0.867188 -10.234375 0.867188 -6.460938 C 0.867188 -2.691406 3.683594 0.390625 7.566406 0.390625 C 10.785156 0.390625 13.085938 -1.734375 13.742188 -4.0625 L 10.421875 -4.0625 C 9.980469 -2.96875 9.039062 -2.324219 7.503906 -2.324219 C 5.71875 -2.324219 4.238281 -3.546875 3.921875 -5.65625 L 14.015625 -5.65625 C 14.066406 -6.136719 14.078125 -6.359375 14.078125 -6.6875 Z M 4.046875 -8.007812 C 4.5625 -9.832031 6.023438 -10.660156 7.554688 -10.660156 C 9.339844 -10.660156 10.847656 -9.453125 10.976562 -8.007812 Z M 4.046875 -8.007812 "/></g></g></g><g fill="#ffffff" fill-opacity="1"><g transform="translate(158.073534, 34.822337)"><g><path d="M 9.730469 0 L 9.730469 -2.527344 L 7.730469 -2.527344 C 6.761719 -2.527344 5.859375 -2.96875 5.859375 -4.777344 L 5.859375 -10.308594 L 9.730469 -10.308594 L 9.730469 -12.921875 L 5.859375 -12.921875 L 5.859375 -16.734375 L 2.816406 -16.707031 L 2.816406 -12.921875 L 0.136719 -12.921875 L 0.136719 -10.308594 L 2.816406 -10.308594 L 2.816406 -4.914062 C 2.816406 -0.652344 5.152344 0 7.101562 0 Z M 9.730469 0 "/></g></g></g><g fill="#ffffff" fill-opacity="1"><g transform="translate(168.478542, 34.822337)"><g><path d="M 2.789062 4.414062 C 5.65625 4.414062 6.964844 3.570312 8.484375 -0.289062 L 13.527344 -12.921875 L 10.285156 -12.910156 L 7.292969 -5.089844 L 6.953125 -3.769531 L 6.625 -5.105469 L 3.582031 -12.921875 L 0.378906 -12.921875 L 5.332031 -0.601562 L 5.179688 -0.164062 C 4.640625 1.257812 4.125 1.898438 2.765625 1.898438 L 0.617188 1.898438 L 0.617188 4.414062 Z M 2.789062 4.414062 "/></g></g></g></svg>