<svg xmlns="http://www.w3.org/2000/svg" xmlns:xlink="http://www.w3.org/1999/xlink" width="250" zoomAndPan="magnify" viewBox="0 0 187.5 60" height="80" preserveAspectRatio="xMidYMid meet" version="1.0"><defs><g/><clipPath id="7a3af78285"><path d="M 0 9 L 28 9 L 28 50.808594 L 0 50.808594 Z M 0 9 " clip-rule="nonzero"/></clipPath><clipPath id="3ed84d61c2"><path d="M 37 8.917969 L 45.628906 8.917969 L 45.628906 18 L 37 18 Z M 37 8.917969 " clip-rule="nonzero"/></clipPath><clipPath id="842a90b6be"><path d="M 17 9 L 45.628906 9 L 45.628906 50.808594 L 17 50.808594 Z M 17 9 " clip-rule="nonzero"/></clipPath><clipPath id="381cc7958c"><path d="M 17 9 L 45.628906 9 L 45.628906 41 L 17 41 Z M 17 9 " clip-rule="nonzero"/></clipPath></defs><g clip-path="url(#7a3af78285)"><path fill="#23d3d3" d="M 10.792969 11.03125 L 25.375 25.617188 C 25.667969 25.910156 25.929688 26.230469 26.160156 26.574219 C 26.390625 26.917969 26.585938 27.285156 26.746094 27.667969 C 26.90625 28.050781 27.023438 28.445312 27.105469 28.851562 C 27.1875 29.261719 27.226562 29.671875 27.226562 30.085938 C 27.226562 30.5 27.1875 30.914062 27.105469 31.320312 C 27.023438 31.726562 26.90625 32.121094 26.746094 32.503906 C 26.585938 32.890625 26.390625 33.253906 26.160156 33.597656 C 25.929688 33.945312 25.667969 34.261719 25.375 34.558594 L 10.792969 49.140625 C 6.808594 53.125 -0.00390625 50.300781 0 44.664062 L 0 15.496094 C -0.00390625 9.871094 6.808594 7.050781 10.792969 11.03125 Z M 10.792969 11.03125 " fill-opacity="1" fill-rule="nonzero"/></g><path fill="#288484" d="M 10.792969 11.03125 C 6.832031 7.070312 0.0976562 9.839844 0.00390625 15.402344 C 0.00390625 15.402344 22.953125 37.117188 19.300781 40.65625 L 25.386719 34.570312 C 25.683594 34.277344 25.945312 33.957031 26.175781 33.613281 C 26.40625 33.265625 26.601562 32.902344 26.757812 32.519531 C 26.917969 32.136719 27.039062 31.738281 27.117188 31.332031 C 27.199219 30.925781 27.238281 30.515625 27.238281 30.097656 C 27.238281 29.683594 27.199219 29.273438 27.117188 28.867188 C 27.039062 28.457031 26.917969 28.0625 26.757812 27.679688 C 26.601562 27.296875 26.40625 26.933594 26.175781 26.585938 C 25.945312 26.242188 25.683594 25.921875 25.386719 25.628906 Z M 10.792969 11.03125 " fill-opacity="1" fill-rule="nonzero"/><g clip-path="url(#3ed84d61c2)"><path fill="#23d3d3" d="M 45.371094 13.101562 C 45.371094 13.371094 45.34375 13.640625 45.292969 13.90625 C 45.238281 14.171875 45.160156 14.429688 45.058594 14.679688 C 44.953125 14.929688 44.824219 15.167969 44.675781 15.394531 C 44.523438 15.621094 44.351562 15.828125 44.160156 16.023438 C 43.96875 16.214844 43.761719 16.382812 43.535156 16.535156 C 43.308594 16.6875 43.070312 16.8125 42.820312 16.917969 C 42.570312 17.019531 42.3125 17.097656 42.046875 17.152344 C 41.777344 17.207031 41.511719 17.230469 41.238281 17.230469 C 40.96875 17.230469 40.699219 17.207031 40.433594 17.152344 C 40.167969 17.097656 39.910156 17.019531 39.65625 16.917969 C 39.40625 16.8125 39.167969 16.6875 38.945312 16.535156 C 38.71875 16.382812 38.507812 16.214844 38.316406 16.023438 C 38.125 15.828125 37.953125 15.621094 37.804688 15.394531 C 37.652344 15.167969 37.527344 14.929688 37.421875 14.679688 C 37.316406 14.429688 37.238281 14.171875 37.1875 13.90625 C 37.132812 13.640625 37.105469 13.371094 37.105469 13.101562 C 37.105469 12.828125 37.132812 12.558594 37.1875 12.292969 C 37.238281 12.027344 37.316406 11.769531 37.421875 11.519531 C 37.527344 11.269531 37.652344 11.03125 37.804688 10.804688 C 37.953125 10.578125 38.125 10.371094 38.316406 10.179688 C 38.507812 9.984375 38.71875 9.816406 38.945312 9.664062 C 39.167969 9.511719 39.40625 9.386719 39.65625 9.28125 C 39.910156 9.179688 40.167969 9.101562 40.433594 9.046875 C 40.699219 8.996094 40.96875 8.96875 41.238281 8.96875 C 41.511719 8.96875 41.777344 8.996094 42.046875 9.046875 C 42.3125 9.101562 42.570312 9.179688 42.820312 9.28125 C 43.070312 9.386719 43.308594 9.511719 43.535156 9.664062 C 43.761719 9.816406 43.96875 9.984375 44.160156 10.179688 C 44.351562 10.371094 44.523438 10.578125 44.675781 10.804688 C 44.824219 11.03125 44.953125 11.269531 45.058594 11.519531 C 45.160156 11.769531 45.238281 12.027344 45.292969 12.292969 C 45.34375 12.558594 45.371094 12.828125 45.371094 13.101562 Z M 45.371094 13.101562 " fill-opacity="1" fill-rule="nonzero"/><path fill="#23d3d3" d="M 45.371094 13.101562 C 45.371094 13.371094 45.34375 13.640625 45.292969 13.90625 C 45.238281 14.171875 45.160156 14.429688 45.058594 14.679688 C 44.953125 14.929688 44.824219 15.167969 44.675781 15.394531 C 44.523438 15.621094 44.351562 15.828125 44.160156 16.023438 C 43.96875 16.214844 43.761719 16.382812 43.535156 16.535156 C 43.308594 16.6875 43.070312 16.8125 42.820312 16.917969 C 42.570312 17.019531 42.3125 17.097656 42.046875 17.152344 C 41.777344 17.207031 41.511719 17.230469 41.238281 17.230469 C 40.96875 17.230469 40.699219 17.207031 40.433594 17.152344 C 40.167969 17.097656 39.910156 17.019531 39.65625 16.917969 C 39.40625 16.8125 39.167969 16.6875 38.945312 16.535156 C 38.71875 16.382812 38.507812 16.214844 38.316406 16.023438 C 38.125 15.828125 37.953125 15.621094 37.804688 15.394531 C 37.652344 15.167969 37.527344 14.929688 37.421875 14.679688 C 37.316406 14.429688 37.238281 14.171875 37.1875 13.90625 C 37.132812 13.640625 37.105469 13.371094 37.105469 13.101562 C 37.105469 12.828125 37.132812 12.558594 37.1875 12.292969 C 37.238281 12.027344 37.316406 11.769531 37.421875 11.519531 C 37.527344 11.269531 37.652344 11.03125 37.804688 10.804688 C 37.953125 10.578125 38.125 10.371094 38.316406 10.179688 C 38.507812 9.984375 38.71875 9.816406 38.945312 9.664062 C 39.167969 9.511719 39.40625 9.386719 39.65625 9.28125 C 39.910156 9.179688 40.167969 9.101562 40.433594 9.046875 C 40.699219 8.996094 40.96875 8.96875 41.238281 8.96875 C 41.511719 8.96875 41.777344 8.996094 42.046875 9.046875 C 42.3125 9.101562 42.570312 9.179688 42.820312 9.28125 C 43.070312 9.386719 43.308594 9.511719 43.535156 9.664062 C 43.761719 9.816406 43.96875 9.984375 44.160156 10.179688 C 44.351562 10.371094 44.523438 10.578125 44.675781 10.804688 C 44.824219 11.03125 44.953125 11.269531 45.058594 11.519531 C 45.160156 11.769531 45.238281 12.027344 45.292969 12.292969 C 45.34375 12.558594 45.371094 12.828125 45.371094 13.101562 Z M 45.371094 13.101562 " fill-opacity="1" fill-rule="nonzero"/></g><g clip-path="url(#842a90b6be)"><path fill="#23d3d3" d="M 43.515625 25.652344 L 28.933594 11.066406 C 25.019531 7.148438 14.582031 11.691406 18.15625 15.265625 L 28.640625 25.753906 C 28.9375 26.046875 29.199219 26.367188 29.429688 26.710938 C 29.660156 27.058594 29.855469 27.421875 30.011719 27.804688 C 30.171875 28.1875 30.292969 28.582031 30.375 28.992188 C 30.453125 29.398438 30.496094 29.808594 30.496094 30.222656 C 30.496094 30.640625 30.453125 31.050781 30.375 31.457031 C 30.292969 31.863281 30.171875 32.257812 30.011719 32.644531 C 29.855469 33.027344 29.660156 33.390625 29.429688 33.734375 C 29.199219 34.082031 28.9375 34.398438 28.640625 34.691406 L 18.160156 45.175781 C 14.964844 48.371094 25.058594 53.078125 28.933594 49.203125 L 43.515625 34.617188 C 43.8125 34.324219 44.078125 34.003906 44.308594 33.660156 C 44.542969 33.3125 44.738281 32.949219 44.898438 32.5625 C 45.058594 32.179688 45.179688 31.78125 45.261719 31.371094 C 45.339844 30.964844 45.382812 30.550781 45.382812 30.136719 C 45.382812 29.71875 45.339844 29.304688 45.261719 28.898438 C 45.179688 28.488281 45.058594 28.089844 44.898438 27.707031 C 44.738281 27.320312 44.542969 26.957031 44.308594 26.609375 C 44.078125 26.265625 43.8125 25.945312 43.515625 25.652344 Z M 43.515625 25.652344 " fill-opacity="1" fill-rule="nonzero"/></g><g clip-path="url(#381cc7958c)"><path fill="#288484" d="M 43.515625 25.652344 L 28.933594 11.066406 C 25.019531 7.148438 14.582031 11.691406 18.15625 15.265625 L 28.640625 25.753906 C 29.683594 26.796875 30.289062 28.050781 30.449219 29.515625 C 34.0625 33.757812 37.066406 37.875 37.695312 40.441406 L 43.527344 34.609375 C 43.820312 34.316406 44.085938 33.996094 44.316406 33.648438 C 44.546875 33.304688 44.742188 32.9375 44.902344 32.554688 C 45.058594 32.167969 45.179688 31.773438 45.261719 31.363281 C 45.34375 30.957031 45.382812 30.542969 45.382812 30.128906 C 45.382812 29.710938 45.339844 29.300781 45.257812 28.890625 C 45.175781 28.484375 45.054688 28.089844 44.894531 27.703125 C 44.734375 27.320312 44.539062 26.953125 44.308594 26.609375 C 44.074219 26.265625 43.8125 25.945312 43.515625 25.652344 Z M 43.515625 25.652344 " fill-opacity="1" fill-rule="nonzero"/></g><g fill="#231f20" fill-opacity="1"><g transform="translate(53.329361, 37.577463)"><g><path d="M 5.367188 0 L 5.367188 -6.972656 L 13.070312 -6.972656 L 13.070312 -9.714844 L 5.367188 -9.714844 L 5.367188 -14.847656 L 14.285156 -14.847656 L 14.285156 -17.757812 L 2.117188 -17.757812 L 2.117188 0 Z M 5.367188 0 "/></g></g><g transform="translate(68.37128, 37.577463)"><g><path d="M 5.367188 0 L 5.367188 -6.292969 L 8.410156 -6.292969 C 8.644531 -6.292969 8.867188 -6.292969 9.101562 -6.304688 L 12.613281 0 L 16.347656 0 L 12.324219 -6.804688 C 14.507812 -7.558594 15.941406 -9.464844 15.941406 -11.972656 C 15.941406 -15.433594 13.371094 -17.757812 9.78125 -17.757812 L 2.117188 -17.757812 L 2.117188 0 Z M 5.367188 -14.859375 L 9.648438 -14.859375 C 11.371094 -14.859375 12.691406 -13.59375 12.691406 -11.972656 C 12.691406 -10.238281 11.386719 -9.046875 9.664062 -9.035156 L 5.367188 -9.035156 Z M 5.367188 -14.859375 "/></g></g><g transform="translate(85.280382, 37.577463)"><g/></g><g transform="translate(91.795935, 37.577463)"><g><path d="M 8.109375 0.40625 C 12.496094 0.40625 15.34375 -1.527344 15.34375 -4.976562 C 15.34375 -8.527344 12.3125 -9.820312 9.046875 -10.417969 C 6.070312 -10.902344 4.597656 -11.582031 4.597656 -13.070312 C 4.597656 -14.191406 5.261719 -15.328125 7.953125 -15.328125 C 10.367188 -15.328125 11.425781 -14.21875 11.425781 -12.847656 L 14.675781 -12.847656 C 14.675781 -16.035156 12.417969 -18.175781 7.992188 -18.175781 C 3.382812 -18.175781 1.34375 -15.96875 1.34375 -13.082031 C 1.34375 -9.402344 4.988281 -8.332031 7.964844 -7.71875 C 10.433594 -7.246094 12.050781 -6.632812 12.050781 -4.988281 C 12.050781 -3.226562 10.757812 -2.335938 8.09375 -2.335938 C 5.589844 -2.335938 4.140625 -3.667969 4.140625 -5.328125 L 0.886719 -5.328125 C 0.886719 -2.546875 2.976562 0.40625 8.109375 0.40625 Z M 8.109375 0.40625 "/></g></g><g transform="translate(107.960775, 37.577463)"><g><path d="M 7.953125 0.40625 C 12.089844 0.40625 15.054688 -2.753906 15.054688 -6.710938 C 15.054688 -10.640625 12.089844 -13.828125 7.964844 -13.828125 C 3.851562 -13.828125 0.902344 -10.628906 0.902344 -6.710938 C 0.902344 -2.769531 3.863281 0.40625 7.953125 0.40625 Z M 7.976562 -2.53125 C 5.71875 -2.53125 4.035156 -4.28125 4.035156 -6.710938 C 4.035156 -9.128906 5.71875 -10.902344 7.976562 -10.902344 C 10.238281 -10.902344 11.921875 -9.128906 11.921875 -6.710938 C 11.921875 -4.28125 10.238281 -2.53125 7.976562 -2.53125 Z M 7.976562 -2.53125 "/></g></g><g transform="translate(123.916699, 37.577463)"><g><path d="M 7.835938 0.40625 C 11.28125 0.40625 13.816406 -1.800781 14.507812 -4.910156 L 11.292969 -4.910156 C 10.707031 -3.238281 9.375 -2.519531 7.847656 -2.519531 C 5.914062 -2.519531 4.035156 -4.0625 4.035156 -6.710938 C 4.035156 -9.347656 5.902344 -10.890625 7.847656 -10.890625 C 9.375 -10.890625 10.695312 -10.171875 11.292969 -8.683594 L 14.519531 -8.683594 C 13.761719 -11.632812 11.292969 -13.828125 7.835938 -13.828125 C 3.824219 -13.828125 0.902344 -10.617188 0.902344 -6.710938 C 0.902344 -2.792969 3.824219 0.40625 7.835938 0.40625 Z M 7.835938 0.40625 "/></g></g><g transform="translate(139.128362, 37.577463)"><g><path d="M 3.40625 -15.511719 C 4.6875 -15.511719 5.40625 -16.308594 5.40625 -17.328125 C 5.40625 -18.304688 4.6875 -19.128906 3.421875 -19.128906 C 2.179688 -19.128906 1.460938 -18.304688 1.460938 -17.328125 C 1.460938 -16.320312 2.195312 -15.511719 3.40625 -15.511719 Z M 5.015625 0 L 5.015625 -13.421875 L 1.855469 -13.421875 L 1.855469 0 Z M 5.015625 0 "/></g></g><g transform="translate(145.983403, 37.577463)"><g><path d="M 14.625 -6.945312 C 14.625 -10.640625 11.90625 -13.828125 7.859375 -13.828125 C 3.824219 -13.828125 0.902344 -10.628906 0.902344 -6.710938 C 0.902344 -2.792969 3.824219 0.40625 7.859375 0.40625 C 11.203125 0.40625 13.59375 -1.800781 14.273438 -4.21875 L 10.824219 -4.21875 C 10.367188 -3.082031 9.386719 -2.414062 7.796875 -2.414062 C 5.941406 -2.414062 4.398438 -3.683594 4.074219 -5.875 L 14.558594 -5.875 C 14.609375 -6.371094 14.625 -6.605469 14.625 -6.945312 Z M 4.203125 -8.316406 C 4.738281 -10.210938 6.253906 -11.074219 7.847656 -11.074219 C 9.703125 -11.074219 11.269531 -9.820312 11.398438 -8.316406 Z M 4.203125 -8.316406 "/></g></g><g transform="translate(161.325638, 37.577463)"><g><path d="M 10.105469 0 L 10.105469 -2.625 L 8.03125 -2.625 C 7.023438 -2.625 6.085938 -3.082031 6.085938 -4.960938 L 6.085938 -10.707031 L 10.105469 -10.707031 L 10.105469 -13.421875 L 6.085938 -13.421875 L 6.085938 -17.378906 L 2.925781 -17.351562 L 2.925781 -13.421875 L 0.144531 -13.421875 L 0.144531 -10.707031 L 2.925781 -10.707031 L 2.925781 -5.105469 C 2.925781 -0.679688 5.351562 0 7.378906 0 Z M 10.105469 0 "/></g></g><g transform="translate(172.137017, 37.577463)"><g><path d="M 2.898438 4.582031 C 5.875 4.582031 7.234375 3.707031 8.8125 -0.300781 L 14.050781 -13.421875 L 10.679688 -13.410156 L 7.574219 -5.289062 L 7.21875 -3.917969 L 6.882812 -5.300781 L 3.722656 -13.421875 L 0.390625 -13.421875 L 5.535156 -0.625 L 5.378906 -0.167969 C 4.816406 1.304688 4.28125 1.972656 2.871094 1.972656 L 0.640625 1.972656 L 0.640625 4.582031 Z M 2.898438 4.582031 "/></g></g></g></svg>